<svg xmlns="http://www.w3.org/2000/svg" xmlns:xlink="http://www.w3.org/1999/xlink" width="259.032" height="86.878" viewBox="0 0 259.032 86.878">
  <defs>
    <linearGradient id="linear-gradient" x1="0.82" y1="0.59" x2="-0.695" y2="0.282" gradientUnits="objectBoundingBox">
      <stop offset="0" stop-color="#001248"/>
      <stop offset="1" stop-color="#003e9d"/>
    </linearGradient>
    <linearGradient id="linear-gradient-2" x1="0.057" y1="-0.15" x2="0.284" y2="0.188" gradientUnits="objectBoundingBox">
      <stop offset="0" stop-color="#2e83ff"/>
      <stop offset="0.753" stop-color="#0045c4"/>
    </linearGradient>
    <linearGradient id="linear-gradient-3" x1="-0.16" y1="-0.04" x2="0.776" y2="0.981" gradientUnits="objectBoundingBox">
      <stop offset="0" stop-color="#2e83ff"/>
      <stop offset="1" stop-color="#0050c4"/>
    </linearGradient>
    <linearGradient id="linear-gradient-4" x1="0.634" y1="0.248" x2="0.455" y2="0.787" xlink:href="#linear-gradient-3"/>
    <linearGradient id="linear-gradient-5" x1="0.038" y1="0.116" x2="0.866" y2="0.696" gradientUnits="objectBoundingBox">
      <stop offset="0" stop-color="#001e4f"/>
      <stop offset="1" stop-color="#003e9d"/>
    </linearGradient>
  </defs>
  <g id="Group_805" data-name="Group 805" transform="translate(-261.456 -449.533)">
    <path id="Path_226" data-name="Path 226" d="M278.582,507.087V459.279h0A17.126,17.126,0,0,0,261.456,476.4v33.349a26.058,26.058,0,0,0,26.058,26.058h26.119V518.685H290.18A11.6,11.6,0,0,1,278.582,507.087Z" transform="translate(0 -3.708)" fill="url(#linear-gradient)"/>
    <path id="Path_227" data-name="Path 227" d="M326.759,535.683h-12.3V531.05a12.493,12.493,0,0,1,12.493-12.493h0c11.56,0,21.343-9.046,21.687-20.6a21.268,21.268,0,0,0-20.81-21.884c-.141,0-13.972,0-14.114,0h-.1c-9.458,0-14.844-7.667-14.844-17.125H327.4a38.412,38.412,0,0,1,38.363,39.111C365.367,519.06,347.769,535.683,326.759,535.683Z" transform="translate(-14.195 -3.58)" fill="url(#linear-gradient-2)"/>
    <path id="Path_228" data-name="Path 228" d="M340.591,450.407" transform="translate(-30.106 -0.333)" fill="#567fba"/>
    <path id="Path_229" data-name="Path 229" d="M337.037,458.943h-5.385c.973,3.17,2.6,6.083,6.975,10.948,5.35,5.953,10.616,9.412,13.154,12.15a21.18,21.18,0,0,1,6.5,15.521c-.134,11.71-9.983,21-21.694,21h0a12.493,12.493,0,0,0-12.493,12.493v4.632h12.3c21.01,0,38.608-16.622,39.006-37.628A38.412,38.412,0,0,0,337.037,458.943Z" transform="translate(-23.829 -3.58)" fill="url(#linear-gradient-3)"/>
    <path id="Path_230" data-name="Path 230" d="M370.99,492.051c.1,1.113.164,2.239.164,3.379h0a35.728,35.728,0,0,1-30.095,35.277,21.829,21.829,0,0,1-4.379.445h-.1a12.493,12.493,0,0,0-12.493,12.493v4.633h12.283c21.145,0,38.813-16.826,39.03-37.97A38.142,38.142,0,0,0,370.99,492.051Z" transform="translate(-23.829 -16.175)" fill="url(#linear-gradient-4)"/>
    <g id="Group_803" data-name="Group 803" transform="translate(372.066 514.372)">
      <path id="Path_231" data-name="Path 231" d="M439.985,555.775h5.789a7.739,7.739,0,0,1,4.045,1.055,7.285,7.285,0,0,1,2.748,2.919,9.605,9.605,0,0,1,0,8.464,7.286,7.286,0,0,1-2.748,2.919,7.739,7.739,0,0,1-4.045,1.055h-5.789Zm5.706,15.333a6.964,6.964,0,0,0,3.574-.9,6.1,6.1,0,0,0,2.383-2.52,8.627,8.627,0,0,0,0-7.409,6.1,6.1,0,0,0-2.383-2.52,6.966,6.966,0,0,0-3.574-.9h-4.641v14.254Z" transform="translate(-439.985 -554.791)" fill="#1d6adb"/>
      <path id="Path_232" data-name="Path 232" d="M473.5,563.519a4.818,4.818,0,0,1,1.087,3.412v7.761h-1v-2.181a3.863,3.863,0,0,1-1.525,1.677,4.609,4.609,0,0,1-2.4.6,4.1,4.1,0,0,1-2.874-.962,3.258,3.258,0,0,1-1.056-2.532,3.3,3.3,0,0,1,.972-2.473,4.316,4.316,0,0,1,3.1-.949h3.742v-.985a3.7,3.7,0,0,0-.826-2.6,3.13,3.13,0,0,0-2.414-.892,5.264,5.264,0,0,0-2.08.423,5.157,5.157,0,0,0-1.683,1.125l-.522-.844a5.7,5.7,0,0,1,1.964-1.278,6.436,6.436,0,0,1,2.4-.458A4.062,4.062,0,0,1,473.5,563.519Zm-1.39,9.6a4.23,4.23,0,0,0,1.432-2.04v-2.3h-3.721a3.406,3.406,0,0,0-2.33.656,2.319,2.319,0,0,0-.722,1.805,2.371,2.371,0,0,0,.8,1.887,3.294,3.294,0,0,0,2.236.691A3.778,3.778,0,0,0,472.111,573.121Z" transform="translate(-449.777 -557.295)" fill="#1d6adb"/>
      <path id="Path_233" data-name="Path 233" d="M491.289,572.335a2.588,2.588,0,0,1-.993.645,3.533,3.533,0,0,1-1.244.222,2.767,2.767,0,0,1-2.194-.879,3.584,3.584,0,0,1-.773-2.45v-7.995h-2.007V560.87h2.007V558.2h1.045v2.673h3.47v1.008h-3.47v7.878a2.8,2.8,0,0,0,.512,1.816,1.851,1.851,0,0,0,1.516.622,2.274,2.274,0,0,0,1.693-.68Z" transform="translate(-456.759 -555.712)" fill="#1d6adb"/>
      <path id="Path_234" data-name="Path 234" d="M506.6,563.519a4.821,4.821,0,0,1,1.087,3.412v7.761h-1v-2.181a3.864,3.864,0,0,1-1.526,1.677,4.609,4.609,0,0,1-2.4.6,4.1,4.1,0,0,1-2.874-.962,3.259,3.259,0,0,1-1.056-2.532,3.3,3.3,0,0,1,.972-2.473,4.318,4.318,0,0,1,3.1-.949h3.742v-.985a3.7,3.7,0,0,0-.826-2.6,3.132,3.132,0,0,0-2.414-.892,5.258,5.258,0,0,0-2.079.423,5.147,5.147,0,0,0-1.683,1.125l-.523-.844a5.7,5.7,0,0,1,1.965-1.278,6.431,6.431,0,0,1,2.4-.458A4.061,4.061,0,0,1,506.6,563.519Zm-1.39,9.6a4.23,4.23,0,0,0,1.432-2.04v-2.3h-3.72a3.408,3.408,0,0,0-2.331.656,2.32,2.32,0,0,0-.721,1.805,2.374,2.374,0,0,0,.794,1.887,3.3,3.3,0,0,0,2.237.691A3.773,3.773,0,0,0,505.205,573.121Z" transform="translate(-462.368 -557.295)" fill="#1d6adb"/>
      <path id="Path_235" data-name="Path 235" d="M534.933,563.519a4.821,4.821,0,0,1,1.087,3.412v7.761h-1v-2.181a3.864,3.864,0,0,1-1.526,1.677,4.609,4.609,0,0,1-2.4.6,4.1,4.1,0,0,1-2.873-.962,3.259,3.259,0,0,1-1.056-2.532,3.3,3.3,0,0,1,.972-2.473,4.318,4.318,0,0,1,3.1-.949h3.742v-.985a3.7,3.7,0,0,0-.826-2.6,3.132,3.132,0,0,0-2.414-.892,5.259,5.259,0,0,0-2.079.423,5.141,5.141,0,0,0-1.683,1.125l-.523-.844a5.7,5.7,0,0,1,1.965-1.278,6.428,6.428,0,0,1,2.4-.458A4.061,4.061,0,0,1,534.933,563.519Zm-1.39,9.6a4.23,4.23,0,0,0,1.433-2.04v-2.3h-3.721a3.406,3.406,0,0,0-2.331.656,2.321,2.321,0,0,0-.721,1.805,2.374,2.374,0,0,0,.794,1.887,3.3,3.3,0,0,0,2.237.691A3.773,3.773,0,0,0,533.543,573.121Z" transform="translate(-473.149 -557.295)" fill="#1d6adb"/>
      <path id="Path_236" data-name="Path 236" d="M556.981,563.7a5.591,5.591,0,0,1,1.192,3.845v7.151h-1.045v-7.058a4.68,4.68,0,0,0-.93-3.141,3.254,3.254,0,0,0-2.6-1.079,3.787,3.787,0,0,0-3.031,1.289,5.146,5.146,0,0,0-1.107,3.47v6.518h-1.046V562.453h1V565.1a4.488,4.488,0,0,1,1.683-2.017,4.749,4.749,0,0,1,2.644-.727A4.117,4.117,0,0,1,556.981,563.7Z" transform="translate(-481.234 -557.295)" fill="#1d6adb"/>
      <path id="Path_237" data-name="Path 237" d="M577.307,563.519a4.824,4.824,0,0,1,1.087,3.412v7.761h-1v-2.181a3.867,3.867,0,0,1-1.526,1.677,4.61,4.61,0,0,1-2.4.6,4.1,4.1,0,0,1-2.874-.962,3.26,3.26,0,0,1-1.056-2.532,3.307,3.307,0,0,1,.971-2.473,4.32,4.32,0,0,1,3.1-.949h3.742v-.985a3.7,3.7,0,0,0-.825-2.6,3.132,3.132,0,0,0-2.414-.892,5.264,5.264,0,0,0-2.08.423,5.137,5.137,0,0,0-1.682,1.125l-.523-.844a5.7,5.7,0,0,1,1.965-1.278,6.433,6.433,0,0,1,2.4-.458A4.061,4.061,0,0,1,577.307,563.519Zm-1.39,9.6a4.229,4.229,0,0,0,1.432-2.04v-2.3h-3.72a3.408,3.408,0,0,0-2.331.656,2.319,2.319,0,0,0-.721,1.805,2.374,2.374,0,0,0,.794,1.887,3.3,3.3,0,0,0,2.237.691A3.773,3.773,0,0,0,575.916,573.121Z" transform="translate(-489.269 -557.295)" fill="#1d6adb"/>
      <path id="Path_238" data-name="Path 238" d="M590.784,554.186h1.045v17.4h-1.045Z" transform="translate(-497.355 -554.186)" fill="#1d6adb"/>
      <path id="Path_239" data-name="Path 239" d="M606.64,562.511l-5.6,13.9a5.521,5.521,0,0,1-1.452,2.3,2.977,2.977,0,0,1-1.954.68,3.555,3.555,0,0,1-1.411-.281,2.994,2.994,0,0,1-1.118-.821l.522-.891a2.592,2.592,0,0,0,2.027.962,2,2,0,0,0,1.359-.492,4.448,4.448,0,0,0,1.044-1.688l.586-1.478-4.911-12.191h1.107l4.368,10.95,4.369-10.95Z" transform="translate(-498.998 -557.353)" fill="#1d6adb"/>
      <path id="Path_240" data-name="Path 240" d="M622.218,572.335a2.581,2.581,0,0,1-.993.645,3.53,3.53,0,0,1-1.243.222,2.769,2.769,0,0,1-2.2-.879,3.587,3.587,0,0,1-.773-2.45v-7.995h-2.006V560.87h2.006V558.2h1.045v2.673h3.47v1.008h-3.47v7.878a2.791,2.791,0,0,0,.512,1.816,1.848,1.848,0,0,0,1.515.622,2.272,2.272,0,0,0,1.693-.68Z" transform="translate(-506.57 -555.712)" fill="#1d6adb"/>
      <path id="Path_241" data-name="Path 241" d="M631.046,556.269a.944.944,0,0,1-.252-.668.985.985,0,0,1,.252-.68.781.781,0,0,1,.606-.281.8.8,0,0,1,.607.27.946.946,0,0,1,.251.668.988.988,0,0,1-.251.68.785.785,0,0,1-.607.281A.794.794,0,0,1,631.046,556.269Zm.084,3.247h1.045v12.239h-1.045Z" transform="translate(-512.576 -554.359)" fill="#1d6adb"/>
      <path id="Path_242" data-name="Path 242" d="M640.892,573.988a5.447,5.447,0,0,1-1.963-2.215,7.609,7.609,0,0,1,0-6.424,5.372,5.372,0,0,1,1.963-2.2,5.247,5.247,0,0,1,2.843-.786,5,5,0,0,1,2.393.575,4.5,4.5,0,0,1,1.745,1.676l-.773.634a3.844,3.844,0,0,0-1.453-1.372,4.038,4.038,0,0,0-1.913-.457,4.167,4.167,0,0,0-2.289.645,4.376,4.376,0,0,0-1.589,1.817,6.608,6.608,0,0,0,0,5.392,4.38,4.38,0,0,0,1.589,1.818,4.178,4.178,0,0,0,2.289.644,4.046,4.046,0,0,0,1.913-.457A3.865,3.865,0,0,0,647.1,571.9l.773.633a4.5,4.5,0,0,1-1.745,1.677,5.005,5.005,0,0,1-2.393.574A5.187,5.187,0,0,1,640.892,573.988Z" transform="translate(-515.4 -557.295)" fill="#1d6adb"/>
      <path id="Path_243" data-name="Path 243" d="M658.126,574.34a5.052,5.052,0,0,1-1.86-1.125l.481-.938a5.384,5.384,0,0,0,1.725,1.055,5.882,5.882,0,0,0,2.2.423,3.956,3.956,0,0,0,2.435-.61,2.019,2.019,0,0,0,.784-1.688,1.689,1.689,0,0,0-.428-1.219,2.587,2.587,0,0,0-1.056-.656,16.385,16.385,0,0,0-1.735-.445,13.17,13.17,0,0,1-2.09-.563,3.261,3.261,0,0,1-1.358-.984,2.85,2.85,0,0,1-.565-1.876,3.065,3.065,0,0,1,1.077-2.4,4.477,4.477,0,0,1,3.062-.95,6.731,6.731,0,0,1,2.069.329,4.954,4.954,0,0,1,1.672.867l-.48.939a4.791,4.791,0,0,0-1.526-.821,5.593,5.593,0,0,0-1.756-.282,3.566,3.566,0,0,0-2.3.633,2.047,2.047,0,0,0-.773,1.665,1.769,1.769,0,0,0,.439,1.278,2.71,2.71,0,0,0,1.076.68,16.938,16.938,0,0,0,1.787.481,13.915,13.915,0,0,1,2.059.551,3.118,3.118,0,0,1,1.328.95,2.748,2.748,0,0,1,.543,1.805,2.979,2.979,0,0,1-1.128,2.438,4.925,4.925,0,0,1-3.178.914A7.092,7.092,0,0,1,658.126,574.34Z" transform="translate(-522.266 -557.295)" fill="#1d6adb"/>
    </g>
    <g id="Group_804" data-name="Group 804" transform="translate(369.948 449.533)">
      <path id="Path_244" data-name="Path 244" d="M446.443,458.782h0V496.2H463.6v8.7H436.567V469.275C436.567,463.48,440.989,458.782,446.443,458.782Z" transform="translate(-436.567 -453.052)" fill="#001a5c"/>
      <path id="Path_245" data-name="Path 245" d="M512.282,479.074q4.083,3.92,4.084,11.824V511.12H511.62a4.29,4.29,0,0,1-4.154-4.414h0q-2.683,4.94-10,4.94a14.522,14.522,0,0,1-6.553-1.383,10,10,0,0,1-4.237-3.821,10.531,10.531,0,0,1-1.463-5.533,9.521,9.521,0,0,1,3.445-7.773q3.443-2.831,10.637-2.832h7.559a6.831,6.831,0,0,0-1.89-5.171q-1.89-1.811-5.67-1.812a15.437,15.437,0,0,0-5.151.889l-.051.018a5.5,5.5,0,0,1-6.8-2.977l-.864-1.816a19.934,19.934,0,0,1,6.432-3.162,26.817,26.817,0,0,1,7.711-1.12Q508.2,475.155,512.282,479.074Zm-8.108,24.437a6.594,6.594,0,0,0,2.683-3.59V496.3h-6.523q-5.852,0-5.852,4.149a3.8,3.8,0,0,0,1.432,3.129,6.1,6.1,0,0,0,3.932,1.152A7.8,7.8,0,0,0,504.174,503.512Z" transform="translate(-455.074 -459.281)" fill="#001a5c"/>
      <path id="Path_246" data-name="Path 246" d="M572.008,477.428a15.778,15.778,0,0,1,5.883,6.39,22.591,22.591,0,0,1,0,19.168,15.659,15.659,0,0,1-14.2,8.662,12.207,12.207,0,0,1-9.876-4.281v6.429c0,5.58-4.258,10.1-9.51,10.1h0V475.682h9.083v4.084q3.534-4.61,10.3-4.611A15.739,15.739,0,0,1,572.008,477.428Zm-3.962,23.12a12.056,12.056,0,0,0,0-14.294,8.092,8.092,0,0,0-12.01,0,12.056,12.056,0,0,0,0,14.294,8.092,8.092,0,0,0,12.01,0Z" transform="translate(-477.553 -459.281)" fill="#001a5c"/>
      <path id="Path_247" data-name="Path 247" d="M609.074,459.348a5.888,5.888,0,0,1,0-8.168,5.773,5.773,0,0,1,4.267-1.647,5.905,5.905,0,0,1,4.267,1.581,5.254,5.254,0,0,1,1.646,3.952,5.823,5.823,0,0,1-1.646,4.249,6.306,6.306,0,0,1-8.534.033Zm-.488,6.587h9.51v25.335c0,5.58-4.258,10.1-9.51,10.1h0Z" transform="translate(-501.569 -449.533)" fill="#001a5c"/>
      <path id="Path_248" data-name="Path 248" d="M637.844,510.56a20.009,20.009,0,0,1-6.218-2.733l.487-1.134a6.508,6.508,0,0,1,7.924-3.792l.062.019a20.665,20.665,0,0,0,6.1.955q6.035,0,6.035-3.228a2.256,2.256,0,0,0-1.646-2.173,22.87,22.87,0,0,0-5.059-1.12,45.538,45.538,0,0,1-6.645-1.515,10.209,10.209,0,0,1-4.541-3.03,9.053,9.053,0,0,1-1.921-6.192,10.232,10.232,0,0,1,1.8-5.961,11.656,11.656,0,0,1,5.243-4.051,20.9,20.9,0,0,1,8.138-1.449,29.7,29.7,0,0,1,6.919.823,18.506,18.506,0,0,1,5.7,2.273l-.071.165a8.085,8.085,0,0,1-8.991,4.847,18.567,18.567,0,0,0-3.556-.336,9,9,0,0,0-4.572.923,2.721,2.721,0,0,0-1.524,2.371,2.334,2.334,0,0,0,1.646,2.305,27.234,27.234,0,0,0,5.242,1.251,52.671,52.671,0,0,1,6.583,1.548,9.816,9.816,0,0,1,4.45,3,8.94,8.94,0,0,1,1.89,6.06,9.856,9.856,0,0,1-1.829,5.863,11.724,11.724,0,0,1-5.334,3.985,22.174,22.174,0,0,1-8.321,1.416A29.6,29.6,0,0,1,637.844,510.56Z" transform="translate(-510.775 -459.281)" fill="#001a5c"/>
    </g>
    <path id="Path_249" data-name="Path 249" d="M285.507,517.7a11.594,11.594,0,0,1-6.925-10.61V459.279A17.126,17.126,0,0,0,261.456,476.4v19.861C262.491,501.21,266.946,514.071,285.507,517.7Z" transform="translate(0 -3.708)" fill="url(#linear-gradient-5)"/>
  </g>
</svg>
