<svg width="200" height="50" viewBox="0 0 200 50" fill="none" xmlns="http://www.w3.org/2000/svg">
<path d="M70.6413 20.5681C70.6413 19.5192 70.3242 18.6898 69.69 18.08C69.0802 17.4702 68.1167 17.1653 66.7994 17.1653H61.5672V24.0075H66.7994C67.6776 24.0075 68.3972 23.8733 68.9582 23.605C69.5192 23.3367 69.9339 22.9464 70.2022 22.4341C70.4949 21.8975 70.6413 21.2755 70.6413 20.5681ZM67.0922 12.4453C69.1655 12.4453 70.8852 12.8234 72.2512 13.5796C73.6416 14.3114 74.6783 15.2993 75.3613 16.5433C76.0443 17.7629 76.3858 19.1045 76.3858 20.5681C76.3858 21.5682 76.2028 22.5561 75.837 23.5318C75.4955 24.4831 74.9466 25.3613 74.1904 26.1662C73.4587 26.9468 72.4951 27.5688 71.2999 28.0323C70.1291 28.4957 68.7265 28.7275 67.0922 28.7275H61.5672V38.0577H55.9325V12.4453H67.0922ZM70.0559 26.7882L76.898 38.0577H70.6413L64.1284 26.7882H70.0559Z" fill="#202224"/>
<path d="M87.2533 38.3138C85.3751 38.3138 83.7408 37.9235 82.3504 37.1429C80.96 36.338 79.8745 35.2159 79.094 33.7767C78.3378 32.3376 77.9597 30.6545 77.9597 28.7275C77.9597 26.9468 78.3378 25.3613 79.094 23.9709C79.8501 22.5805 80.9112 21.495 82.2772 20.7144C83.6432 19.9095 85.1921 19.507 86.924 19.507C88.7535 19.507 90.339 19.8851 91.6806 20.6413C93.0222 21.373 94.0711 22.4219 94.8273 23.7879C95.5834 25.1539 95.9615 26.7394 95.9615 28.5445C95.9615 28.8372 95.9493 29.1421 95.9249 29.4592C95.9005 29.7763 95.8639 30.13 95.8152 30.5203H83.6676C83.7895 31.1789 84.0213 31.7521 84.3628 32.24C84.7043 32.7035 85.1311 33.0694 85.6434 33.3377C86.18 33.5816 86.7899 33.7036 87.4728 33.7036C88.229 33.7036 88.912 33.545 89.5218 33.2279C90.1317 32.9108 90.5829 32.4595 90.8756 31.8741L95.6688 33.1913C94.937 34.8256 93.8393 36.0941 92.3758 36.9966C90.9122 37.8747 89.2047 38.3138 87.2533 38.3138ZM90.1439 27.0444C90.1195 26.4345 89.9609 25.8979 89.6682 25.4344C89.3755 24.971 88.9974 24.6051 88.5339 24.3368C88.0705 24.0684 87.5582 23.9465 86.9972 23.9709C86.4362 23.9953 85.9239 24.1416 85.4604 24.4099C85.0214 24.6539 84.6433 25.0076 84.3262 25.471C84.0091 25.9101 83.8139 26.4345 83.7408 27.0444H90.1439Z" fill="#202224"/>
<path d="M98.3249 19.7631H103.155L103.521 21.7389C104.13 21.0803 104.85 20.5437 105.679 20.129C106.509 19.7143 107.411 19.507 108.387 19.507C109.826 19.507 111.034 19.8119 112.009 20.4217C113.009 21.0315 113.766 21.9219 114.278 23.0927C114.814 24.2636 115.083 25.6906 115.083 27.3737V38.0577H109.741V28.0323C109.741 26.8126 109.485 25.8857 108.972 25.2515C108.485 24.6173 107.741 24.3002 106.74 24.3002C105.716 24.3002 104.948 24.6295 104.435 25.2881C103.923 25.9223 103.667 26.8492 103.667 28.0688V38.0577H98.3249V19.7631Z" fill="#202224"/>
<path d="M119.491 19.7631V14.6407H124.943V19.7631H128.711V24.4831H124.943V31.0692C124.943 31.8985 125.126 32.4839 125.491 32.8254C125.882 33.1669 126.37 33.3499 126.955 33.3743C127.54 33.3743 128.126 33.3255 128.711 33.2279V37.8747C127.467 38.0943 126.284 38.1552 125.162 38.0577C124.04 37.9845 123.052 37.6918 122.198 37.1795C121.369 36.6673 120.711 35.9111 120.223 34.911C119.735 33.9109 119.491 32.6303 119.491 31.0692V24.4831H116.93V19.7631H119.491Z" fill="#202224"/>
<path d="M147.41 38.0577H142.544L142.178 36.0453C141.568 36.7283 140.848 37.2771 140.019 37.6918C139.214 38.1065 138.324 38.3138 137.348 38.3138C135.982 38.3138 134.799 38.0089 133.799 37.3991C132.799 36.7892 132.018 35.8989 131.457 34.7281C130.896 33.5328 130.616 32.1058 130.616 30.4471V19.7631H135.958V29.7885C135.958 31.0082 136.202 31.9351 136.689 32.5693C137.202 33.2035 137.97 33.5206 138.995 33.5206C139.97 33.5206 140.726 33.1913 141.263 32.5327C141.8 31.8741 142.068 30.935 142.068 29.7154V19.7631H147.41V38.0577Z" fill="#202224"/>
<path d="M150.61 19.7631H155.44L155.806 21.6292C156.391 20.995 157.086 20.4827 157.891 20.0924C158.696 19.7021 159.574 19.507 160.526 19.507C161.648 19.507 162.684 19.7509 163.636 20.2388C164.611 20.7266 165.392 21.434 165.977 22.361C166.66 21.5072 167.502 20.8242 168.502 20.312C169.526 19.7753 170.648 19.507 171.868 19.507C173.307 19.507 174.551 19.8119 175.6 20.4217C176.673 21.0315 177.503 21.9219 178.088 23.0927C178.674 24.2636 178.966 25.6906 178.966 27.3737V38.0577H173.624V28.0323C173.624 26.8614 173.356 25.9711 172.819 25.3613C172.283 24.727 171.527 24.4099 170.551 24.4099C169.526 24.4099 168.734 24.727 168.173 25.3613C167.612 25.9955 167.331 26.9224 167.331 28.142V38.0577H161.989V28.0323C161.989 26.8614 161.745 25.9711 161.257 25.3613C160.769 24.727 160.025 24.4099 159.025 24.4099C158.001 24.4099 157.232 24.727 156.72 25.3613C156.208 25.9955 155.952 26.898 155.952 28.0688V38.0577H150.61V19.7631Z" fill="#202224"/>
<path d="M190.45 38.3138C188.67 38.3138 187.072 37.9357 185.657 37.1795C184.242 36.4234 183.132 35.3379 182.327 33.9231C181.547 32.5083 181.157 30.8374 181.157 28.9104C181.157 26.9834 181.559 25.3247 182.364 23.9343C183.193 22.5195 184.315 21.434 185.73 20.6779C187.169 19.8973 188.767 19.507 190.523 19.507C192.328 19.507 193.938 19.8973 195.353 20.6779C196.792 21.434 197.927 22.5195 198.756 23.9343C199.585 25.3247 200 26.9712 200 28.8738C200 30.8252 199.573 32.5083 198.719 33.9231C197.89 35.3379 196.744 36.4234 195.28 37.1795C193.841 37.9357 192.231 38.3138 190.45 38.3138ZM190.45 33.484C191.084 33.484 191.694 33.3133 192.28 32.9718C192.865 32.6303 193.341 32.1302 193.707 31.4716C194.073 30.7886 194.255 29.9349 194.255 28.9104C194.255 27.8859 194.073 27.0444 193.707 26.3858C193.341 25.7028 192.877 25.1905 192.316 24.849C191.755 24.5075 191.158 24.3368 190.523 24.3368C189.84 24.3368 189.231 24.5075 188.694 24.849C188.157 25.1905 187.718 25.7028 187.377 26.3858C187.06 27.0444 186.901 27.8859 186.901 28.9104C186.901 29.9349 187.06 30.7886 187.377 31.4716C187.694 32.1302 188.121 32.6303 188.657 32.9718C189.194 33.3133 189.792 33.484 190.45 33.484Z" fill="#202224"/>
<circle cx="21.9534" cy="24.9534" r="21.9534" fill="#1E60FA"/>
<path fill-rule="evenodd" clip-rule="evenodd" d="M9.90675 22.9729C9.90675 21.494 10.527 20.083 11.6166 19.0831L18.6621 12.6179C20.6811 10.7652 23.7819 10.7652 25.8009 12.6179L31.6941 18.0258C33.8275 19.9834 33.9859 23.2941 32.0493 25.4466L29.8306 27.9127L33.6806 31.1282C34.7146 31.9918 34.8527 33.53 33.9892 34.564C33.1256 35.598 31.5873 35.7361 30.5533 34.8726L25.8917 30.9792C24.213 29.5772 24.0337 27.0618 25.4966 25.4359L28.4226 22.1836C28.5696 22.0202 28.5576 21.7689 28.3956 21.6203L22.5025 16.2124C22.3492 16.0718 22.1138 16.0718 21.9605 16.2124L14.9151 22.6776C14.8324 22.7535 14.7853 22.8606 14.7853 22.9729V33.0004C14.7853 34.3475 13.6932 35.4396 12.346 35.4396C10.9988 35.4396 9.90675 34.3475 9.90675 33.0004L9.90675 22.9729Z" fill="white"/>
</svg>
