<svg width="97" height="26" viewBox="0 0 97 26" fill="none" xmlns="http://www.w3.org/2000/svg">
<path d="M31.3094 18.4776C30.6109 18.4776 29.965 18.3793 29.3719 18.1825C28.7787 17.9857 28.2679 17.7409 27.8374 17.4457C27.4068 17.1528 27.0152 16.8233 26.6602 16.4595L27.8763 14.9562C28.1992 15.2995 28.5267 15.5923 28.8565 15.828C29.1863 16.066 29.5551 16.2582 29.965 16.4046C30.375 16.5511 30.8239 16.6243 31.3094 16.6243C31.9668 16.6243 32.5073 16.5007 32.9264 16.2513C33.3455 16.0042 33.5562 15.6518 33.5562 15.1965C33.5562 14.9036 33.4646 14.6656 33.2837 14.4826C33.1027 14.2995 32.8302 14.1508 32.4706 14.0341C32.111 13.9174 31.5774 13.7893 30.8674 13.6474C30.036 13.4644 29.3535 13.2585 28.8153 13.0251C28.2794 12.7917 27.8603 12.4736 27.5625 12.0686C27.2625 11.6636 27.1136 11.1374 27.1136 10.4898C27.1136 9.83315 27.2854 9.2634 27.6312 8.7829C27.9748 8.3024 28.458 7.9363 29.081 7.68232C29.7039 7.43063 30.4208 7.30249 31.2316 7.30249C31.7996 7.30249 32.3286 7.37113 32.8187 7.50842C33.3089 7.64571 33.7555 7.82647 34.1563 8.05528C34.5571 8.2818 34.9189 8.55409 35.2419 8.86756L34.0876 10.4006C33.673 9.9956 33.215 9.68213 32.7134 9.46018C32.2118 9.23824 31.7034 9.12612 31.1858 9.12612C30.5788 9.12612 30.091 9.23824 29.7269 9.46018C29.3627 9.68213 29.1795 9.9773 29.1795 10.3411C29.1795 10.6134 29.2619 10.8331 29.4291 10.9932C29.5963 11.1557 29.8459 11.293 30.1803 11.4028C30.5147 11.5149 30.9957 11.6362 31.6232 11.7666C32.5256 11.9588 33.2562 12.1762 33.8196 12.4187C34.3807 12.6613 34.8227 12.9953 35.1411 13.4209C35.4594 13.8465 35.6198 14.4025 35.6198 15.0912C35.6198 15.78 35.4365 16.3772 35.0724 16.8828C34.7082 17.3885 34.1998 17.7798 33.5448 18.0589C32.8966 18.3404 32.15 18.4776 31.3094 18.4776Z" fill="#0C0B17"/>
<path d="M38.1282 9.49453C37.7938 9.49453 37.5098 9.37554 37.2762 9.13758C37.0426 8.89962 36.9258 8.61818 36.9258 8.29555C36.9258 7.96149 37.0426 7.67548 37.2762 7.43751C37.5098 7.19955 37.7938 7.08057 38.1282 7.08057C38.4626 7.08057 38.7466 7.19955 38.9779 7.43751C39.2115 7.67548 39.3283 7.96149 39.3283 8.29555C39.3283 8.62047 39.2115 8.89962 38.9779 9.13758C38.7443 9.37554 38.4626 9.49453 38.1282 9.49453ZM37.1869 18.2351V10.5104H39.0558V18.2351H37.1869Z" fill="#0C0B17"/>
<path d="M40.9375 18.235V10.5104H42.8224V11.421C43.0446 11.0572 43.34 10.7735 43.7042 10.5721C44.0683 10.3708 44.4783 10.2678 44.9341 10.2678C45.5318 10.2678 46.0334 10.3845 46.4388 10.6179C46.8442 10.8513 47.1419 11.1899 47.3343 11.6338C47.5679 11.2082 47.8862 10.8742 48.2916 10.6316C48.697 10.3891 49.1734 10.2678 49.7185 10.2678C50.5384 10.2678 51.1682 10.4966 51.6103 10.952C52.05 11.4073 52.2721 12.0663 52.2721 12.9243V18.235H50.4033V13.2584C50.4033 12.8031 50.291 12.4575 50.0689 12.2196C49.8467 11.9816 49.5169 11.8626 49.0818 11.8626C48.7772 11.8626 48.5092 11.9359 48.2756 12.0823C48.042 12.2287 47.8633 12.4438 47.7351 12.7275C47.6091 13.0113 47.545 13.3545 47.545 13.7595V18.235H45.6601V13.2584C45.6601 12.8031 45.5479 12.4575 45.3257 12.2196C45.1035 11.9816 44.7829 11.8626 44.3684 11.8626C44.0546 11.8626 43.782 11.9359 43.5484 12.0823C43.3148 12.2287 43.1362 12.4415 43.0079 12.7207C42.882 12.9998 42.8178 13.3362 42.8178 13.7297V18.2373H40.9375V18.235Z" fill="#0C0B17"/>
<path d="M54.1445 21.1203V10.5104H55.9974V11.4828C56.3203 11.0893 56.7074 10.7872 57.1517 10.579C57.5983 10.3708 58.0884 10.2678 58.6243 10.2678C59.3527 10.2678 59.9985 10.4417 60.5619 10.7918C61.123 11.1419 61.5628 11.6292 61.8765 12.2562C62.1903 12.8831 62.3483 13.5925 62.3483 14.3819C62.3483 15.1804 62.1903 15.8897 61.8765 16.5075C61.5628 17.1253 61.123 17.6081 60.5551 17.9559C59.9871 18.306 59.3389 18.4799 58.6106 18.4799C58.0838 18.4799 57.5983 18.3769 57.1517 18.1687C56.7051 17.9605 56.3203 17.6653 55.9974 17.2809V21.1203H54.1445ZM58.2304 16.8393C58.6656 16.8393 59.048 16.7409 59.3778 16.5441C59.7076 16.3473 59.9642 16.0613 60.152 15.6861C60.3398 15.3108 60.4337 14.8761 60.4337 14.3819C60.4337 13.6336 60.2321 13.0342 59.8267 12.5834C59.4214 12.1326 58.8854 11.9084 58.2167 11.9084C57.5479 11.9084 57.012 12.1326 56.6066 12.5834C56.2012 13.0342 55.9997 13.6336 55.9997 14.3819C55.9997 14.8784 56.0936 15.3131 56.2814 15.6861C56.4692 16.0613 56.7303 16.3473 57.0647 16.5441C57.3967 16.7409 57.7861 16.8393 58.2304 16.8393Z" fill="#0C0B17"/>
<path d="M63.9141 18.235V7.23145H65.783V18.235H63.9141Z" fill="#0C0B17"/>
<path d="M68.6376 9.49453C68.3032 9.49453 68.0192 9.37554 67.7879 9.13758C67.5543 8.89962 67.4375 8.61818 67.4375 8.29555C67.4375 7.96149 67.5543 7.67548 67.7879 7.43751C68.0215 7.19955 68.3055 7.08057 68.6376 7.08057C68.972 7.08057 69.256 7.19955 69.4896 7.43751C69.7232 7.67548 69.84 7.96149 69.84 8.29555C69.84 8.62047 69.7232 8.89962 69.4896 9.13758C69.256 9.37554 68.972 9.49453 68.6376 9.49453ZM67.6963 18.2351V10.5104H69.5652V18.2351H67.6963Z" fill="#0C0B17"/>
<path d="M75.3362 18.4638C74.4956 18.4638 73.7559 18.2922 73.1192 17.9467C72.4802 17.6035 71.9901 17.123 71.6465 16.5052C71.303 15.8874 71.1289 15.185 71.1289 14.3956C71.1289 13.6062 71.3007 12.8992 71.6465 12.2699C71.9901 11.643 72.4802 11.151 73.1123 10.7987C73.7444 10.444 74.4865 10.2678 75.3385 10.2678C75.7645 10.2678 76.1584 10.3136 76.5225 10.4051C76.8867 10.4966 77.2188 10.6225 77.5188 10.7849C77.8166 10.9474 78.1143 11.1442 78.4075 11.3776L77.4661 12.8191C77.173 12.5559 76.8592 12.3523 76.5248 12.2036C76.1905 12.0571 75.8103 11.9839 75.3866 11.9839C74.8804 11.9839 74.4498 12.0892 74.0948 12.302C73.7398 12.5148 73.4787 12.8008 73.3116 13.16C73.1444 13.5192 73.0619 13.9265 73.0619 14.3819C73.0619 14.828 73.1489 15.2285 73.3207 15.5877C73.4925 15.9469 73.7536 16.2306 74.104 16.4366C74.4544 16.6448 74.8804 16.7478 75.3889 16.7478C75.7942 16.7478 76.163 16.6791 76.4974 16.5418C76.8317 16.4045 77.1547 16.2009 77.4707 15.9263L78.3983 17.3381C78.1349 17.5715 77.8555 17.7683 77.5623 17.9307C77.2692 18.0932 76.9348 18.2213 76.5592 18.3174C76.1767 18.4158 75.7713 18.4638 75.3362 18.4638Z" fill="#0C0B17"/>
<path d="M80.622 9.49452C80.2876 9.49452 80.0036 9.37554 79.7723 9.13758C79.5387 8.89961 79.4219 8.61818 79.4219 8.29555C79.4219 7.96149 79.5387 7.67547 79.7723 7.43751C80.0059 7.19955 80.2899 7.08057 80.622 7.08057C80.9564 7.08057 81.2404 7.19955 81.4717 7.43751C81.7053 7.67547 81.8221 7.96149 81.8221 8.29555C81.8221 8.62046 81.7053 8.89961 81.4717 9.13758C81.2381 9.37554 80.9564 9.49452 80.622 9.49452Z" fill="url(#paint0_linear)"/>
<path d="M81.5447 10.5103H79.6758V18.2349H81.5447V10.5103Z" fill="#0C0B17"/>
<path d="M86.4721 18.4183C85.6316 18.4183 85.0292 18.2261 84.6651 17.8417C84.3009 17.4573 84.1177 16.9058 84.1177 16.1874V12.0276H82.9336V10.5105H84.1177V8.49243H86.0026V10.5105H87.5966V12.0276H86.0026V16.0798C86.0026 16.3429 86.0805 16.5352 86.2385 16.6564C86.3942 16.7777 86.6255 16.8395 86.9301 16.8395C87.0813 16.8395 87.2989 16.8189 87.5829 16.7777V18.265C87.1981 18.3679 86.8271 18.4183 86.4721 18.4183Z" fill="#0C0B17"/>
<path d="M92.1477 21.3628C91.5911 21.3628 91.0415 21.285 90.4987 21.1271C89.9559 20.9692 89.452 20.7496 88.9871 20.4658L89.7612 18.9488C90.1368 19.1708 90.5239 19.3492 90.9224 19.4797C91.3232 19.6101 91.7148 19.6764 92.0996 19.6764C92.5553 19.6764 92.931 19.6009 93.2241 19.4499C93.5173 19.2989 93.7303 19.0792 93.8631 18.7978C93.9937 18.5141 94.0601 18.1548 94.0601 17.7201V17.068C93.7967 17.4226 93.4692 17.6949 93.0798 17.8871C92.6905 18.0793 92.2507 18.1754 91.7652 18.1754C90.8834 18.1754 90.1986 17.8871 89.7062 17.3105C89.2138 16.7339 88.9688 15.9491 88.9688 14.9583V10.5103H90.8216V14.8211C90.8216 15.3977 90.9476 15.8347 91.2018 16.1344C91.4537 16.4319 91.8339 16.5829 92.3423 16.5829C92.6859 16.5829 92.9859 16.4982 93.2379 16.3244C93.4898 16.1527 93.6913 15.9079 93.8379 15.5876C93.9845 15.2695 94.0578 14.9011 94.0578 14.487V10.5103H96.0022V17.7956C96.0022 18.5553 95.8465 19.2005 95.5396 19.7314C95.2304 20.2622 94.7884 20.6672 94.2112 20.9463C93.6364 21.2232 92.9493 21.3628 92.1477 21.3628Z" fill="#0C0B17"/>
<path d="M25.1955 3.87979C19.9576 -1.29821 11.4308 -1.29821 6.19295 3.90954C2.21242 7.81535 1.22531 13.5265 3.20412 18.3521L0 21.5166C5.23789 26.6946 13.7646 26.6946 19.0002 21.4868C22.951 17.581 23.9381 11.8699 21.9616 7.04425L25.1955 3.87979Z" fill="url(#paint1_linear)"/>
<path d="M12.3721 21.8803C17.0433 21.8803 20.8301 17.7786 20.8301 12.7187C20.8301 7.65892 17.0433 3.55713 12.3721 3.55713C7.70086 3.55713 3.91406 7.65892 3.91406 12.7187C3.91406 17.7786 7.70086 21.8803 12.3721 21.8803Z" fill="url(#paint2_radial)"/>
<path fill-rule="evenodd" clip-rule="evenodd" d="M15.7928 15.3866L12.5979 18.2513L9.40521 15.3866C6.15529 12.4921 8.24175 7.16309 12.5979 7.16309C16.9563 7.16309 19.0405 12.4944 15.7928 15.3866ZM14.2354 11.84C14.2354 12.7255 13.5048 13.4417 12.6002 13.4417C11.6955 13.4417 10.9649 12.7255 10.9649 11.84C10.9649 10.9545 11.6955 10.2383 12.6002 10.2383C13.5048 10.2383 14.2354 10.9545 14.2354 11.84Z" fill="white"/>
<defs>
<linearGradient id="paint0_linear" x1="79.4209" y1="8.28681" x2="81.8213" y2="8.28681" gradientUnits="userSpaceOnUse">
<stop stop-color="#FFBD1B"/>
<stop offset="0.2604" stop-color="#F5B410"/>
<stop offset="0.9383" stop-color="#ED9430"/>
</linearGradient>
<linearGradient id="paint1_linear" x1="6.06794" y1="0.89021" x2="18.2472" y2="22.9583" gradientUnits="userSpaceOnUse">
<stop stop-color="#FFBD1B"/>
<stop offset="0.2604" stop-color="#F5B410"/>
<stop offset="0.9383" stop-color="#ED9430"/>
</linearGradient>
<radialGradient id="paint2_radial" cx="0" cy="0" r="1" gradientUnits="userSpaceOnUse" gradientTransform="translate(13.0356 13.5548) rotate(68.6352) scale(7.53813 7.11932)">
<stop offset="0.3125" stop-color="#F3AC1E"/>
<stop offset="0.4635" stop-color="#E68B1E"/>
<stop offset="0.7917" stop-color="#F4AB20" stop-opacity="0"/>
</radialGradient>
</defs>
</svg>
