<!-- License and attributtion: https://thenounproject.com/term/video-player/10681/ -->
<svg height='300px' width='300px'  fill="#FFFFFF" xmlns="http://www.w3.org/2000/svg" xmlns:xlink="http://www.w3.org/1999/xlink" version="1.1" x="0px" y="0px" viewBox="0 0 100 100" enable-background="new 0 0 100 100" xml:space="preserve"><path fill-rule="evenodd" clip-rule="evenodd" d="M97.942,26.338c-0.795-7.177-5.913-12.648-13.119-13.118  c-31.149-2.035-38.497-2.035-69.647,0C7.97,13.69,2.853,19.159,2.058,26.338c-2.418,21.825-2.417,25.499,0,47.324  C2.853,80.841,7.973,86.31,15.176,86.78c31.151,2.035,38.498,2.035,69.647,0c7.204-0.47,12.324-5.941,13.119-13.118  C100.359,51.837,100.36,48.163,97.942,26.338z M64.609,51.886L37.664,68.123c-0.699,0.421-1.672,0.432-2.382,0.03  c-0.71-0.4-1.282-1.101-1.282-1.916V33.763c0-0.815,0.572-1.516,1.282-1.917c0.71-0.401,1.602-0.39,2.301,0.031l26.985,16.237  c0.68,0.41,1.086,1.092,1.086,1.886C65.654,50.794,65.289,51.477,64.609,51.886z"></path></svg>
